<?xml version="1.0" standalone="no"?>
<!DOCTYPE svg PUBLIC "-//W3C//DTD SVG 20010904//EN"
 "http://www.w3.org/TR/2001/REC-SVG-20010904/DTD/svg10.dtd">
<svg version="1.0" xmlns="http://www.w3.org/2000/svg"
 width="2000.000000pt" height="2000.000000pt" viewBox="0 0 2000.000000 2000.000000"
 preserveAspectRatio="xMidYMid meet">

<g transform="translate(0.000000,2000.000000) scale(0.100000,-0.100000)"
fill="#0059ff" stroke="none">
<path d="M9525 15543 c-408 -24 -770 -79 -1115 -169 -1766 -461 -3188 -1781
-3770 -3499 -260 -768 -344 -1554 -254 -2364 9 -80 19 -152 23 -161 5 -14 46
-10 371 38 201 29 367 55 369 57 2 2 -4 61 -13 130 -83 656 -9 1376 209 2030
609 1826 2294 3100 4210 3184 676 29 1349 -84 1965 -331 264 -106 630 -299
860 -455 432 -292 839 -681 1152 -1103 472 -635 777 -1395 878 -2183 30 -239
51 -657 33 -657 -5 0 -181 131 -392 291 l-384 290 -26 -33 c-14 -18 -117 -153
-228 -300 l-202 -267 861 -652 c473 -358 864 -647 868 -642 4 4 256 337 560
738 304 402 595 785 646 852 l93 122 -301 227 c-295 223 -301 227 -317 206 -9
-11 -106 -140 -216 -285 -110 -146 -202 -263 -204 -261 -2 2 -8 65 -12 141
-116 1799 -1143 3443 -2714 4342 -739 423 -1538 659 -2410 711 -156 9 -417 11
-540 3z"/>
<path d="M4695 9057 c-3 -7 -142 -466 -310 -1022 -168 -555 -307 -1015 -310
-1021 -2 -7 131 -52 349 -118 193 -58 356 -106 362 -106 5 0 54 147 109 328
54 180 102 334 106 342 6 12 10 10 17 -10 5 -14 31 -72 56 -129 511 -1135
1418 -2072 2541 -2626 1113 -549 2367 -701 3572 -435 1881 417 3396 1791 3992
3622 22 70 41 133 41 140 0 9 -120 48 -356 116 -196 57 -357 102 -359 100 -1
-2 -21 -61 -45 -133 -236 -718 -623 -1340 -1167 -1876 -245 -241 -452 -409
-733 -592 -983 -641 -2206 -889 -3360 -681 -1471 266 -2723 1208 -3377 2542
-83 171 -216 495 -204 500 4 1 214 -60 467 -137 252 -76 460 -138 461 -137 4
3 213 700 213 710 0 7 -429 142 -987 310 -544 165 -1007 305 -1031 312 -33 10
-44 11 -47 1z"/>
</g>
</svg>
